<svg width="20" height="20" viewBox="0 0 20 20" fill="none" xmlns="http://www.w3.org/2000/svg">
<path d="M17.585 2.23745C16.0041 0.687523 13.4481 -0.063475 9.9869 0.00419674C6.49687 0.0728377 4.16396 0.685408 2.64513 1.93205C1.17662 3.13727 0.492676 4.90088 0.492676 7.48219V10.1166C0.492676 13.164 2.12561 16.5142 5.24653 17.0211C5.60683 17.08 5.94625 16.8351 6.00475 16.4747C6.06326 16.1145 5.81866 15.775 5.45836 15.7165C3.09152 15.332 1.81439 12.5444 1.81439 10.1166V7.48219C1.81439 3.78086 3.18589 1.45984 10.0128 1.32556C13.1078 1.26423 15.3417 1.88905 16.6595 3.18116C17.6865 4.18821 18.1858 5.59505 18.1858 7.48219V10.1166C18.1858 14.1059 16.3952 15.8655 11.8027 16.3836H8.54614C8.37089 16.3836 8.20276 16.4532 8.07888 16.5772L5.78429 18.8717C5.5262 19.1298 5.5262 19.5483 5.78429 19.8064C5.91329 19.9354 6.08247 20 6.25156 20C6.42065 20 6.58983 19.9355 6.71883 19.8064L8.81992 17.7053H11.8396C11.8639 17.7053 11.8883 17.704 11.9126 17.7012C14.5408 17.4093 16.3406 16.7253 17.5765 15.5484C18.8759 14.311 19.5076 12.5342 19.5076 10.1165V7.48219C19.5076 5.25299 18.8607 3.48841 17.585 2.23745Z" fill="#21201F"/>
<path d="M10.4124 4.31674C10.4125 4.31674 10.4125 4.31674 10.4127 4.31674C11.4775 4.31674 12.4787 4.7315 13.2317 5.48452C13.9848 6.23763 14.3996 7.23896 14.3995 8.304C14.3995 8.66897 14.6953 8.96486 15.0603 8.96486C15.0604 8.96486 15.0604 8.96486 15.0604 8.96486C15.4253 8.96486 15.7212 8.66906 15.7212 8.30409C15.7213 6.88598 15.1691 5.55272 14.1663 4.54998C13.1637 3.54724 11.8307 2.99512 10.4127 2.99512C10.4126 2.99512 10.4123 2.99512 10.4122 2.99512C10.0473 2.99512 9.75146 3.291 9.75146 3.65597C9.75155 4.02086 10.0474 4.31674 10.4124 4.31674Z" fill="#21201F"/>
<path d="M10.4122 6.64007C11.3293 6.64025 12.0756 7.3864 12.0757 8.30341C12.0757 8.66838 12.3715 8.96426 12.7366 8.96417C13.1017 8.96417 13.3975 8.6682 13.3974 8.30323C13.3971 6.65761 12.0581 5.31862 10.4124 5.31836H10.4123C10.0474 5.31836 9.75155 5.61416 9.75146 5.97913C9.75146 6.3441 10.0473 6.64007 10.4122 6.64007Z" fill="#21201F"/>
<path d="M7.44924 7.77304C7.14798 7.97905 7.0707 8.39028 7.27663 8.69154C7.48255 8.99281 7.89387 9.06999 8.19513 8.86407C8.43207 8.70212 8.98701 8.3227 8.94807 7.56421C8.92339 7.11024 8.51393 6.46208 8.17478 5.99824C7.67869 5.31959 7.25116 4.91082 6.90672 4.78412C6.58511 4.66437 6.24877 4.66181 5.90636 4.77671C5.19713 5.01568 4.68219 5.44753 4.41732 6.02556C4.15941 6.58826 4.16514 7.23493 4.43397 7.89605C5.06892 9.45373 5.95782 10.8175 7.0819 11.9552C8.21372 13.0733 9.57738 13.9622 11.1357 14.5975C11.4729 14.7347 11.8065 14.8033 12.1271 14.8033C12.4347 14.8033 12.7303 14.7402 13.0057 14.614C13.5838 14.349 14.0155 13.8342 14.2547 13.124C14.3693 12.7824 14.3667 12.4463 14.248 12.1269C14.1204 11.7799 13.7115 11.3525 13.033 10.8564C12.569 10.5173 11.9209 10.1078 11.4651 10.083C10.7082 10.045 10.3292 10.599 10.1672 10.8359C9.96121 11.1372 10.0383 11.5484 10.3396 11.7545C10.6409 11.9606 11.0521 11.8834 11.2582 11.5821C11.3301 11.477 11.3711 11.4293 11.3946 11.4084C11.7656 11.5272 12.8234 12.3044 13.0138 12.6022C13.0185 12.6213 13.0196 12.6503 13.0019 12.703C12.9186 12.9505 12.756 13.2745 12.4551 13.4125C12.1732 13.5415 11.8529 13.4624 11.6342 13.3735C10.2379 12.8042 9.01882 12.0107 8.01643 11.0206C7.02066 10.0126 6.22719 8.79358 5.65823 7.39776C5.56906 7.17853 5.48985 6.85806 5.61893 6.57645C5.75683 6.27554 6.08092 6.11288 6.32764 6.0297C6.38033 6.01208 6.40932 6.01305 6.42941 6.01789C6.72732 6.20866 7.50405 7.26585 7.623 7.6369C7.60203 7.66008 7.55436 7.70123 7.44924 7.77304Z" fill="#21201F"/>
</svg>
