<svg width="28" height="29" viewBox="0 0 28 29" fill="none" xmlns="http://www.w3.org/2000/svg">
<path d="M14 15.4229C15.933 15.4229 17.5 13.8558 17.5 11.9229C17.5 9.98985 15.933 8.42285 14 8.42285C12.067 8.42285 10.5 9.98985 10.5 11.9229C10.5 13.8558 12.067 15.4229 14 15.4229Z" stroke="#F3AB22" stroke-width="2" stroke-linecap="round" stroke-linejoin="round"/>
<path d="M22.75 11.9229C22.75 19.7979 14 25.9229 14 25.9229C14 25.9229 5.25 19.7979 5.25 11.9229C5.25 9.60221 6.17187 7.37661 7.81282 5.73567C9.45376 4.09472 11.6794 3.17285 14 3.17285C16.3206 3.17285 18.5462 4.09472 20.1872 5.73567C21.8281 7.37661 22.75 9.60221 22.75 11.9229V11.9229Z" stroke="#F3AB22" stroke-width="2" stroke-linecap="round" stroke-linejoin="round"/>
</svg>
