<svg width="21" height="21" viewBox="0 0 21 21" fill="none" xmlns="http://www.w3.org/2000/svg">
<path d="M10.8618 15.646L14.9991 18.2672C15.528 18.6023 16.1846 18.104 16.0277 17.4867L14.8323 12.7844C14.7986 12.6535 14.8026 12.5156 14.8438 12.3868C14.885 12.258 14.9617 12.1435 15.0651 12.0563L18.7751 8.96839C19.2626 8.56264 19.011 7.75361 18.3847 7.71296L13.5396 7.39851C13.4091 7.38919 13.2839 7.34298 13.1787 7.26528C13.0734 7.18757 12.9924 7.08156 12.945 6.95959L11.138 2.40908C11.0889 2.27962 11.0016 2.16816 10.8876 2.08952C10.7737 2.01087 10.6385 1.96875 10.5 1.96875C10.3615 1.96875 10.2264 2.01087 10.1124 2.08952C9.99844 2.16816 9.9111 2.27962 9.86198 2.40908L8.05497 6.95959C8.00762 7.08156 7.9266 7.18757 7.82134 7.26528C7.71608 7.34298 7.59091 7.38919 7.46041 7.39851L2.61532 7.71296C1.98901 7.75361 1.7374 8.56264 2.22488 8.96839L5.93493 12.0563C6.03833 12.1435 6.11502 12.258 6.1562 12.3868C6.19738 12.5156 6.20136 12.6535 6.1677 12.7844L5.05915 17.1452C4.87083 17.886 5.65876 18.484 6.29338 18.0819L10.1382 15.646C10.2463 15.5772 10.3718 15.5406 10.5 15.5406C10.6282 15.5406 10.7537 15.5772 10.8618 15.646Z" fill="#F3AB22"/>
</svg>
