<svg width="18" height="18" viewBox="0 0 18 18" fill="none" xmlns="http://www.w3.org/2000/svg">
<path d="M17.3332 13.1004V15.6004C17.3341 15.8325 17.2866 16.0622 17.1936 16.2749C17.1006 16.4875 16.9643 16.6784 16.7933 16.8353C16.6222 16.9922 16.4203 17.1116 16.2005 17.186C15.9806 17.2603 15.7477 17.288 15.5165 17.2671C12.9522 16.9884 10.489 16.1122 8.32486 14.7087C6.31139 13.4293 4.60431 11.7222 3.32486 9.70874C1.91651 7.53474 1.04007 5.05957 0.76653 2.48374C0.745705 2.2533 0.773092 2.02104 0.846947 1.80176C0.920801 1.58248 1.03951 1.38098 1.1955 1.21009C1.3515 1.0392 1.54137 0.902664 1.75302 0.809175C1.96468 0.715685 2.19348 0.667291 2.42486 0.667073H4.92486C5.32928 0.663093 5.72136 0.806305 6.028 1.07002C6.33464 1.33373 6.53493 1.69995 6.59153 2.10041C6.69705 2.90046 6.89274 3.68601 7.17486 4.44207C7.28698 4.74034 7.31125 5.0645 7.24478 5.37614C7.17832 5.68778 7.02392 5.97383 6.79986 6.20041L5.74153 7.25874C6.92783 9.34503 8.65524 11.0724 10.7415 12.2587L11.7999 11.2004C12.0264 10.9764 12.3125 10.8219 12.6241 10.7555C12.9358 10.689 13.2599 10.7133 13.5582 10.8254C14.3143 11.1075 15.0998 11.3032 15.8999 11.4087C16.3047 11.4658 16.6744 11.6697 16.9386 11.9817C17.2029 12.2936 17.3433 12.6917 17.3332 13.1004Z" fill="#21201F"/>
</svg>
