<svg width="19" height="18" viewBox="0 0 19 18" fill="none" xmlns="http://www.w3.org/2000/svg">
<path d="M9.86185 14.646L13.9991 17.2672C14.528 17.6023 15.1846 17.104 15.0277 16.4867L13.8323 11.7844C13.7986 11.6535 13.8026 11.5156 13.8438 11.3868C13.885 11.258 13.9617 11.1435 14.0651 11.0563L17.7751 7.96839C18.2626 7.56264 18.011 6.75361 17.3847 6.71296L12.5396 6.39851C12.4091 6.38919 12.2839 6.34298 12.1787 6.26528C12.0734 6.18757 11.9924 6.08156 11.945 5.95959L10.138 1.40908C10.0889 1.27962 10.0016 1.16816 9.88761 1.08952C9.77365 1.01087 9.63847 0.96875 9.5 0.96875C9.36154 0.96875 9.22635 1.01087 9.11239 1.08952C8.99844 1.16816 8.9111 1.27962 8.86198 1.40908L7.05497 5.95959C7.00762 6.08156 6.9266 6.18757 6.82134 6.26528C6.71608 6.34298 6.59091 6.38919 6.46041 6.39851L1.61532 6.71296C0.989008 6.75361 0.737397 7.56264 1.22488 7.96839L4.93493 11.0563C5.03833 11.1435 5.11502 11.258 5.1562 11.3868C5.19738 11.5156 5.20136 11.6535 5.1677 11.7844L4.05915 16.1452C3.87083 16.886 4.65876 17.484 5.29338 17.0819L9.13816 14.646C9.24629 14.5772 9.37182 14.5406 9.5 14.5406C9.62819 14.5406 9.75371 14.5772 9.86185 14.646Z" fill="#F3AB22"/>
</svg>
