<svg width="16" height="18" viewBox="0 0 16 18" fill="none" xmlns="http://www.w3.org/2000/svg">
<path d="M13.8241 8.46679L2.57591 1.59268C2.48117 1.53478 2.37272 1.50317 2.2617 1.50109C2.15069 1.49901 2.04112 1.52654 1.94428 1.58085C1.84744 1.63516 1.76681 1.71429 1.7107 1.8101C1.65458 1.90591 1.625 2.01494 1.625 2.12598V15.8742C1.625 15.9852 1.65458 16.0943 1.7107 16.1901C1.76681 16.2859 1.84744 16.365 1.94428 16.4193C2.04112 16.4736 2.15069 16.5012 2.2617 16.4991C2.37272 16.497 2.48117 16.4654 2.57591 16.4075L13.8241 9.53338C13.9154 9.47755 13.9909 9.39919 14.0433 9.30581C14.0957 9.21242 14.1232 9.10715 14.1232 9.00009C14.1232 8.89302 14.0957 8.78775 14.0433 8.69437C13.9909 8.60099 13.9154 8.52262 13.8241 8.46679Z" stroke="#F8F9FC" stroke-width="2" stroke-linecap="round" stroke-linejoin="round"/>
</svg>
