<svg width="18" height="18" viewBox="0 0 18 18" fill="none" xmlns="http://www.w3.org/2000/svg">
<path d="M17.3332 13.1V15.6C17.3341 15.8321 17.2866 16.0618 17.1936 16.2745C17.1006 16.4871 16.9643 16.678 16.7933 16.8349C16.6222 16.9918 16.4203 17.1113 16.2005 17.1856C15.9806 17.26 15.7477 17.2876 15.5165 17.2667C12.9522 16.9881 10.489 16.1118 8.32486 14.7084C6.31139 13.4289 4.60431 11.7218 3.32486 9.70837C1.91651 7.53438 1.04007 5.0592 0.76653 2.48337C0.745705 2.25293 0.773092 2.02067 0.846947 1.80139C0.920801 1.58211 1.03951 1.38061 1.1955 1.20972C1.3515 1.03883 1.54137 0.902298 1.75302 0.808808C1.96468 0.715319 2.19348 0.666925 2.42486 0.666707H4.92486C5.32928 0.662726 5.72136 0.805939 6.028 1.06965C6.33464 1.33336 6.53493 1.69958 6.59153 2.10004C6.69705 2.9001 6.89274 3.68565 7.17486 4.44171C7.28698 4.73998 7.31125 5.06414 7.24478 5.37577C7.17832 5.68741 7.02392 5.97347 6.79986 6.20004L5.74153 7.25837C6.92783 9.34466 8.65524 11.0721 10.7415 12.2584L11.7999 11.2C12.0264 10.976 12.3125 10.8216 12.6241 10.7551C12.9358 10.6887 13.2599 10.7129 13.5582 10.825C14.3143 11.1072 15.0998 11.3029 15.8999 11.4084C16.3047 11.4655 16.6744 11.6694 16.9386 11.9813C17.2029 12.2932 17.3433 12.6914 17.3332 13.1Z" fill="white"/>
</svg>
