<svg width="20" height="20" viewBox="0 0 20 20" fill="none" xmlns="http://www.w3.org/2000/svg">
<g clip-path="url(#clip0_364_826)">
<path d="M17.585 2.23745C16.0041 0.687523 13.4481 -0.063475 9.9869 0.00419674C6.49687 0.0728377 4.16396 0.685408 2.64513 1.93205C1.17662 3.13727 0.492676 4.90088 0.492676 7.48219V10.1166C0.492676 13.164 2.12561 16.5142 5.24653 17.0211C5.60683 17.08 5.94625 16.8351 6.00475 16.4747C6.06326 16.1145 5.81866 15.775 5.45836 15.7165C3.09152 15.332 1.81439 12.5444 1.81439 10.1166V7.48219C1.81439 3.78086 3.18589 1.45984 10.0128 1.32556C13.1078 1.26423 15.3417 1.88905 16.6595 3.18116C17.6865 4.18821 18.1858 5.59505 18.1858 7.48219V10.1166C18.1858 14.1059 16.3952 15.8655 11.8027 16.3836H8.54614C8.37089 16.3836 8.20276 16.4532 8.07888 16.5772L5.78429 18.8717C5.5262 19.1298 5.5262 19.5483 5.78429 19.8064C5.91329 19.9354 6.08247 20 6.25156 20C6.42065 20 6.58983 19.9355 6.71883 19.8064L8.81992 17.7053H11.8396C11.8639 17.7053 11.8883 17.704 11.9126 17.7012C14.5408 17.4093 16.3406 16.7253 17.5765 15.5484C18.8759 14.311 19.5076 12.5342 19.5076 10.1165V7.48219C19.5076 5.25299 18.8607 3.48841 17.585 2.23745Z" fill="white"/>
<path d="M10.4124 4.3165C10.4125 4.3165 10.4125 4.3165 10.4127 4.3165C11.4775 4.3165 12.4787 4.73125 13.2317 5.48428C13.9848 6.23739 14.3996 7.23872 14.3995 8.30376C14.3995 8.66873 14.6953 8.96461 15.0603 8.96461C15.0604 8.96461 15.0604 8.96461 15.0604 8.96461C15.4253 8.96461 15.7212 8.66882 15.7212 8.30385C15.7213 6.88573 15.1691 5.55248 14.1663 4.54974C13.1637 3.547 11.8307 2.99487 10.4127 2.99487C10.4126 2.99487 10.4123 2.99487 10.4122 2.99487C10.0473 2.99487 9.75146 3.29076 9.75146 3.65573C9.75155 4.02061 10.0474 4.3165 10.4124 4.3165Z" fill="white"/>
<path d="M10.4122 6.64044C11.3293 6.64062 12.0756 7.38677 12.0757 8.30377C12.0757 8.66874 12.3715 8.96463 12.7366 8.96454C13.1017 8.96454 13.3975 8.66857 13.3974 8.3036C13.3971 6.65797 12.0581 5.31899 10.4124 5.31873H10.4123C10.0474 5.31873 9.75155 5.61453 9.75146 5.97949C9.75146 6.34446 10.0473 6.64044 10.4122 6.64044Z" fill="white"/>
<path d="M7.44924 7.7728C7.14798 7.97881 7.0707 8.39004 7.27663 8.6913C7.48255 8.99256 7.89387 9.06975 8.19513 8.86383C8.43207 8.70187 8.98701 8.32245 8.94807 7.56396C8.92339 7.11 8.51393 6.46183 8.17478 5.998C7.67869 5.31934 7.25116 4.91058 6.90672 4.78387C6.58511 4.66412 6.24877 4.66157 5.90636 4.77647C5.19713 5.01544 4.68219 5.44728 4.41732 6.02531C4.15941 6.58801 4.16514 7.23468 4.43397 7.8958C5.06892 9.45349 5.95782 10.8172 7.0819 11.955C8.21372 13.073 9.57738 13.9619 11.1357 14.5972C11.4729 14.7344 11.8065 14.8031 12.1271 14.8031C12.4347 14.8031 12.7303 14.74 13.0057 14.6137C13.5838 14.3488 14.0155 13.8339 14.2547 13.1238C14.3693 12.7822 14.3667 12.446 14.248 12.1266C14.1204 11.7797 13.7115 11.3523 13.033 10.8562C12.569 10.517 11.9209 10.1076 11.4651 10.0828C10.7082 10.0447 10.3292 10.5987 10.1672 10.8356C9.96121 11.1369 10.0383 11.5481 10.3396 11.7542C10.6409 11.9603 11.0521 11.8831 11.2582 11.5819C11.3301 11.4768 11.3711 11.429 11.3946 11.4081C11.7656 11.527 12.8234 12.3042 13.0138 12.602C13.0185 12.621 13.0196 12.65 13.0019 12.7028C12.9186 12.9503 12.756 13.2743 12.4551 13.4123C12.1732 13.5413 11.8529 13.4622 11.6342 13.3732C10.2379 12.8039 9.01882 12.0105 8.01643 11.0203C7.02066 10.0124 6.22719 8.79333 5.65823 7.39752C5.56906 7.17829 5.48985 6.85782 5.61893 6.5762C5.75683 6.27529 6.08092 6.11264 6.32764 6.02946C6.38033 6.01183 6.40932 6.0128 6.42941 6.01765C6.72732 6.20842 7.50405 7.26561 7.623 7.63666C7.60203 7.65983 7.55436 7.70098 7.44924 7.7728Z" fill="white"/>
</g>
<defs>
<clipPath id="clip0_364_826">
<rect width="20" height="20" fill="white"/>
</clipPath>
</defs>
</svg>
